<svg xmlns="http://www.w3.org/2000/svg" width="900" height="520" viewBox="0 0 900 520">
  <rect width="100%" height="100%" fill="white"/>
  <text x="450.0" y="30" text-anchor="middle" font-size="24" font-weight="700">CPU vs GPU Runtime Crossover</text>

  <line x1="90" y1="440.0" x2="860" y2="440.0" stroke="#d0d7de" stroke-dasharray="4 4" />
<text x="78" y="446.0" text-anchor="end" font-size="14">10</text>
<line x1="90" y1="342.5" x2="860" y2="342.5" stroke="#d0d7de" stroke-dasharray="4 4" />
<text x="78" y="348.5" text-anchor="end" font-size="14">100</text>
<line x1="90" y1="245.0" x2="860" y2="245.0" stroke="#d0d7de" stroke-dasharray="4 4" />
<text x="78" y="251.0" text-anchor="end" font-size="14">1,000</text>
<line x1="90" y1="147.5" x2="860" y2="147.5" stroke="#d0d7de" stroke-dasharray="4 4" />
<text x="78" y="153.5" text-anchor="end" font-size="14">10,000</text>
<line x1="90" y1="50.0" x2="860" y2="50.0" stroke="#d0d7de" stroke-dasharray="4 4" />
<text x="78" y="56.0" text-anchor="end" font-size="14">100,000</text>

  <line x1="90" y1="50" x2="90" y2="440" stroke="#24292f" stroke-width="2"/>
  <line x1="90" y1="440" x2="860" y2="440" stroke="#24292f" stroke-width="2"/>

  <polyline points="90.0,374.1 475.0,187.9 860.0,92.0" fill="none" stroke="#0969da" stroke-width="4"/>
  <polyline points="90.0,203.4 475.0,234.7 860.0,177.3" fill="none" stroke="#cf222e" stroke-width="4"/>

  <circle cx="90.0" cy="374.1" r="6" fill="#0969da" />
<circle cx="475.0" cy="187.9" r="6" fill="#0969da" />
<circle cx="860.0" cy="92.0" r="6" fill="#0969da" />
  <circle cx="90.0" cy="203.4" r="6" fill="#cf222e" />
<circle cx="475.0" cy="234.7" r="6" fill="#cf222e" />
<circle cx="860.0" cy="177.3" r="6" fill="#cf222e" />

  <text x="90.0" y="480" text-anchor="middle" font-size="18">10K</text>
<text x="475.0" y="480" text-anchor="middle" font-size="18">1M</text>
<text x="860.0" y="480" text-anchor="middle" font-size="18">10M</text>

  <text x="25" y="260.0" transform="rotate(-90 25,260.0)" text-anchor="middle" font-size="18">Total runtime, ms log scale</text>
  <text x="450.0" y="510" text-anchor="middle" font-size="18">Dataset size</text>

  <rect x="600" y="62" width="245" height="70" fill="white" stroke="#d0d7de"/>
  <line x1="620" y1="88" x2="670" y2="88" stroke="#0969da" stroke-width="4"/>
  <text x="680" y="94" font-size="16">CPU/Pandas</text>
  <line x1="620" y1="115" x2="670" y2="115" stroke="#cf222e" stroke-width="4"/>
  <text x="680" y="121" font-size="16">GPU/RAPIDS cuDF</text>

  <text x="475.0" y="216.7" text-anchor="middle" font-size="14" fill="#cf222e">GPU wins by 1M</text>
  <text x="860.0" y="159.3" text-anchor="middle" font-size="14" fill="#cf222e">~7.5x faster at 10M</text>
</svg>
