<svg xmlns="http://www.w3.org/2000/svg" width="900" height="500" viewBox="0 0 900 500">
  <rect width="100%" height="100%" fill="white"/>
  <text x="450" y="34" text-anchor="middle" font-size="24" font-weight="700">CPU vs GPU Runtime Crossover</text>

  <line x1="95" y1="425" x2="845" y2="425" stroke="#24292f" stroke-width="2"/>
  <line x1="95" y1="55" x2="95" y2="425" stroke="#24292f" stroke-width="2"/>

  <line x1="95" y1="425" x2="845" y2="425" stroke="#d0d7de" stroke-dasharray="4 4"/>
  <line x1="95" y1="332.5" x2="845" y2="332.5" stroke="#d0d7de" stroke-dasharray="4 4"/>
  <line x1="95" y1="240" x2="845" y2="240" stroke="#d0d7de" stroke-dasharray="4 4"/>
  <line x1="95" y1="147.5" x2="845" y2="147.5" stroke="#d0d7de" stroke-dasharray="4 4"/>
  <line x1="95" y1="55" x2="845" y2="55" stroke="#d0d7de" stroke-dasharray="4 4"/>

  <text x="82" y="430" text-anchor="end" font-size="14">10</text>
  <text x="82" y="337.5" text-anchor="end" font-size="14">100</text>
  <text x="82" y="245" text-anchor="end" font-size="14">1,000</text>
  <text x="82" y="152.5" text-anchor="end" font-size="14">10,000</text>
  <text x="82" y="60" text-anchor="end" font-size="14">100,000</text>

  <!-- CPU/Pandas: 47.40, 3855.97, 37099.22 ms -->
  <polyline points="95,394.4 470,185.8 845,95.0" fill="none" stroke="#0969da" stroke-width="4"/>
  <circle cx="95" cy="394.4" r="6" fill="#0969da"/>
  <circle cx="470" cy="185.8" r="6" fill="#0969da"/>
  <circle cx="845" cy="95.0" r="6" fill="#0969da"/>

  <!-- GPU/cuDF: 2673.02, 1275.38, 4949.73 ms -->
  <polyline points="95,215.3 470,238.0 845,177.9" fill="none" stroke="#cf222e" stroke-width="4"/>
  <circle cx="95" cy="215.3" r="6" fill="#cf222e"/>
  <circle cx="470" cy="238.0" r="6" fill="#cf222e"/>
  <circle cx="845" cy="177.9" r="6" fill="#cf222e"/>

  <text x="95" y="462" text-anchor="middle" font-size="18">10K</text>
  <text x="470" y="462" text-anchor="middle" font-size="18">1M</text>
  <text x="845" y="462" text-anchor="middle" font-size="18">10M</text>

  <text x="28" y="250" transform="rotate(-90 28,250)" text-anchor="middle" font-size="18">Total runtime, ms log scale</text>
  <text x="450" y="492" text-anchor="middle" font-size="18">Dataset size</text>

  <!-- Legend moved below plot lines to avoid obscuring the data -->
  <rect x="585" y="315" width="245" height="70" fill="white" stroke="#d0d7de"/>
  <line x1="610" y1="341" x2="660" y2="341" stroke="#0969da" stroke-width="4"/>
  <text x="675" y="347" font-size="16">CPU/Pandas</text>
  <line x1="610" y1="368" x2="660" y2="368" stroke="#cf222e" stroke-width="4"/>
  <text x="675" y="374" font-size="16">GPU/RAPIDS cuDF</text>
</svg>
